<svg width="375" height="772" viewBox="0 0 375 772" fill="none" xmlns="http://www.w3.org/2000/svg">
<g clip-path="url(#clip0_61385:181)">
<rect width="375" height="772" fill="#202024"/>
<circle cx="279" cy="96" r="300" transform="rotate(-180 279 96)" fill="url(#paint0_radial_61385:181)"/>
<circle cx="99" cy="96" r="300" transform="rotate(-180 99 96)" fill="url(#paint1_radial_61385:181)"/>
<mask id="mask0_61385:181" style="mask-type:alpha" maskUnits="userSpaceOnUse" x="1" y="-3" width="375" height="812">
<rect x="1" y="-2.99997" width="375" height="812" fill="#202024"/>
</mask>
<g mask="url(#mask0_61385:181)">
<path d="M376 165.101V-313.699L188.478 -421.486L0.955322 -313.699V165.101L188.478 272.894L376 165.101Z" fill="url(#paint2_linear_61385:181)"/>
<g style="mix-blend-mode:luminosity" opacity="0.4">
<path d="M2.83662 58.3931V165.797L96.1275 219.505L189.418 165.797V58.3931L96.1275 4.68581L2.83662 58.3931Z" fill="url(#paint3_linear_61385:181)"/>
<path d="M2.83662 -49.0166V58.3878L96.1275 112.095L189.418 58.3878V-49.0166L96.1275 -102.724L2.83662 -49.0166Z" fill="url(#paint4_linear_61385:181)"/>
<path d="M282.709 -102.696V4.70824L189.418 58.4156L96.1274 4.70824V-102.696L189.418 -156.403L282.709 -102.696Z" fill="url(#paint5_linear_61385:181)"/>
<path d="M189.418 165.797V58.3927L282.709 4.68542L376 58.3927V165.797L282.709 219.504L189.418 165.797Z" fill="url(#paint6_linear_61385:181)"/>
<path d="M376 -49.0166V58.3878L282.709 112.095L189.418 58.3878V-49.0166L282.709 -102.724L376 -49.0166Z" fill="url(#paint7_linear_61385:181)"/>
<path d="M282.709 219.527V112.123L189.418 58.4156L96.1274 112.123L96.1274 219.527L189.418 273.235L282.709 219.527Z" fill="url(#paint8_linear_61385:181)"/>
</g>
</g>
</g>
<defs>
<radialGradient id="paint0_radial_61385:181" cx="0" cy="0" r="1" gradientUnits="userSpaceOnUse" gradientTransform="translate(279 96) rotate(90) scale(300)">
<stop stop-color="#FF0000"/>
<stop offset="1" stop-color="#4D0000" stop-opacity="0"/>
</radialGradient>
<radialGradient id="paint1_radial_61385:181" cx="0" cy="0" r="1" gradientUnits="userSpaceOnUse" gradientTransform="translate(99 96) rotate(90) scale(300)">
<stop stop-color="#030088"/>
<stop offset="1" stop-opacity="0"/>
</radialGradient>
<linearGradient id="paint2_linear_61385:181" x1="-66.9497" y1="55.9385" x2="437.115" y2="229.358" gradientUnits="userSpaceOnUse">
<stop stop-color="#0D00A3"/>
<stop offset="1" stop-color="#000C7B"/>
</linearGradient>
<linearGradient id="paint3_linear_61385:181" x1="96.1275" y1="214.565" x2="3.23833" y2="56.047" gradientUnits="userSpaceOnUse">
<stop/>
<stop offset="1" stop-color="white"/>
</linearGradient>
<linearGradient id="paint4_linear_61385:181" x1="96.1275" y1="107.155" x2="3.23831" y2="-51.3626" gradientUnits="userSpaceOnUse">
<stop/>
<stop offset="1" stop-color="white"/>
</linearGradient>
<linearGradient id="paint5_linear_61385:181" x1="96.1275" y1="-108.732" x2="282.421" y2="3.68572" gradientUnits="userSpaceOnUse">
<stop offset="0.317708"/>
<stop offset="1" stop-color="#FF0100"/>
</linearGradient>
<linearGradient id="paint6_linear_61385:181" x1="376" y1="171.833" x2="189.706" y2="59.4153" gradientUnits="userSpaceOnUse">
<stop offset="0.317708"/>
<stop offset="1" stop-color="#FF0100"/>
</linearGradient>
<linearGradient id="paint7_linear_61385:181" x1="282.709" y1="107.155" x2="375.598" y2="-51.3626" gradientUnits="userSpaceOnUse">
<stop/>
<stop offset="1" stop-color="white"/>
</linearGradient>
<linearGradient id="paint8_linear_61385:181" x1="189.418" y1="63.3552" x2="282.307" y2="221.873" gradientUnits="userSpaceOnUse">
<stop/>
<stop offset="1" stop-color="white"/>
</linearGradient>
<clipPath id="clip0_61385:181">
<rect width="375" height="772" fill="white"/>
</clipPath>
</defs>
</svg>
