<svg width="48" height="47" viewBox="0 0 48 47" fill="none" xmlns="http://www.w3.org/2000/svg">
<rect y="0.640381" width="48" height="45.6355" fill="#060606"/>
<path d="M36.1462 23.5276C36.1462 17.1876 30.7416 12.0493 24.0731 12.0493C17.4046 12.0493 12 17.1876 12 23.5276C12 29.2578 16.4142 34.0061 22.1867 34.867V26.8456H19.1212V23.5276H22.1867V20.9988C22.1867 18.1225 23.9882 16.533 26.7471 16.533C28.0676 16.533 29.4494 16.7572 29.4494 16.7572V19.5819H27.9261C26.4264 19.5819 25.9595 20.4675 25.9595 21.3754V23.5276H29.3079L28.7726 26.8456H25.9595V34.867C31.732 34.0061 36.1462 29.2578 36.1462 23.5276Z" fill="#898989"/>
</svg>
