<svg width="48" height="47" viewBox="0 0 48 47" fill="none" xmlns="http://www.w3.org/2000/svg">
<rect y="0.640381" width="48" height="45.6355" fill="#060606"/>
<g clip-path="url(#clip0_61385:216)">
<path d="M22.724 34.8669C21.617 34.8669 20.324 34.8612 19.048 34.7918C17.1811 34.8317 15.3729 34.17 14.016 32.9502C12.7328 31.6606 12.0367 29.9418 12.079 28.167C12 26.7951 12 25.408 12 24.0665C12 23.8637 12 23.6608 12 23.458C12 23.2552 12 23.0524 12 22.8495C12 21.508 12 20.1209 12.079 18.7499C12.037 16.975 12.733 15.2559 14.016 13.9658C15.3729 12.746 17.1811 12.0843 19.048 12.1242C20.328 12.0548 21.617 12.0491 22.724 12.0491H25.277C26.384 12.0491 27.677 12.0548 28.954 12.1242C30.8207 12.084 32.6286 12.7458 33.985 13.9658C35.268 15.2559 35.964 16.975 35.922 18.7499C36 20.1209 36 21.508 36 22.8505C36 23.0533 36 23.2561 36 23.459C36 23.6618 36 23.8643 36 24.0665C36 25.408 36 26.7951 35.921 28.168C35.9633 29.9427 35.2672 31.6616 33.984 32.9511C32.6276 34.1711 30.8197 34.8329 28.953 34.7927C27.672 34.8621 26.383 34.8678 25.276 34.8678L22.724 34.8669Z" fill="#898989"/>
<path d="M29.6061 18.5034C29.8426 18.6536 30.1206 18.7338 30.405 18.7338L30.406 18.7347C30.7873 18.7342 31.1528 18.5899 31.4223 18.3333C31.6917 18.0768 31.843 17.7291 31.843 17.3666C31.843 17.0962 31.7587 16.8319 31.6007 16.6071C31.4427 16.3822 31.2181 16.207 30.9553 16.1035C30.6926 16 30.4034 15.973 30.1245 16.0257C29.8456 16.0785 29.5893 16.2087 29.3882 16.3999C29.1871 16.5911 29.0502 16.8347 28.9947 17.0999C28.9392 17.3651 28.9677 17.64 29.0765 17.8898C29.1853 18.1396 29.3697 18.3531 29.6061 18.5034Z" fill="#060606"/>
<path fill-rule="evenodd" clip-rule="evenodd" d="M24.0003 29.3104C22.7828 29.3102 21.5927 28.9668 20.5805 28.3236C19.5683 27.6804 18.7794 26.7662 18.3137 25.6968C17.8479 24.6273 17.7261 23.4505 17.9637 22.3153C18.2014 21.18 18.7878 20.1372 19.6487 19.3188C20.5097 18.5004 21.6066 17.9431 22.8007 17.7173C23.9949 17.4916 25.2326 17.6075 26.3574 18.0505C27.4822 18.4935 28.4436 19.2437 29.1199 20.2062C29.7963 21.1686 30.1573 22.3002 30.1573 23.4577C30.1558 25.0097 29.5066 26.4977 28.3522 27.5952C27.1979 28.6927 25.6328 29.3089 24.0003 29.3104ZM24.0003 19.6552C23.2092 19.6552 22.4358 19.8783 21.778 20.2961C21.1202 20.714 20.6075 21.3079 20.3048 22.0028C20.002 22.6977 19.9228 23.4624 20.0771 24.2001C20.2315 24.9378 20.6124 25.6154 21.1719 26.1473C21.7313 26.6791 22.444 27.0413 23.2199 27.1881C23.9958 27.3348 24.8001 27.2595 25.531 26.9716C26.2619 26.6838 26.8866 26.1964 27.3262 25.571C27.7657 24.9456 28.0003 24.2103 28.0003 23.4582C28.0003 22.4496 27.5789 21.4823 26.8287 20.7691C26.0786 20.0559 25.0612 19.6552 24.0003 19.6552Z" fill="#060606"/>
</g>
<defs>
<clipPath id="clip0_61385:216">
<rect width="24" height="22.8177" fill="white" transform="translate(12 12.0491)"/>
</clipPath>
</defs>
</svg>
