<svg width="48" height="47" viewBox="0 0 48 47" fill="none" xmlns="http://www.w3.org/2000/svg">
<rect y="0.640381" width="48" height="45.6355" fill="#060606"/>
<g clip-path="url(#clip0_61385:205)">
<path d="M36.6849 16.6559C35.7603 17.0272 34.7804 17.2721 33.7769 17.3827C34.8352 16.807 35.627 15.9013 36.0048 14.8344C35.0115 15.3735 33.9234 15.7529 32.7882 15.956C32.0948 15.2796 31.1931 14.8087 30.2007 14.605C29.2084 14.4012 28.1715 14.474 27.2254 14.8138C26.2792 15.1536 25.4677 15.7446 24.8968 16.5098C24.3259 17.275 24.022 18.1788 24.0248 19.1032C24.0229 19.457 24.0668 19.8097 24.1556 20.1542C22.1396 20.0634 20.1674 19.5872 18.3677 18.7568C16.5679 17.9263 14.9812 16.7602 13.7111 15.3346C13.0631 16.3495 12.8653 17.5507 13.1579 18.6936C13.4505 19.8364 14.2116 20.8348 15.2861 21.4855C14.4786 21.4674 13.6882 21.2698 12.9841 20.9101V20.9673C12.9836 22.0315 13.3885 23.063 14.1302 23.8866C14.8718 24.7102 15.9043 25.275 17.0523 25.4852C16.6174 25.5924 16.1687 25.6467 15.7181 25.6467C15.3985 25.6473 15.0797 25.6187 14.7664 25.5614C15.09 26.4767 15.7204 27.2771 16.5694 27.8507C17.4184 28.4242 18.4434 28.7423 19.5011 28.7603C17.7065 30.0421 15.489 30.7372 13.2063 30.7332C12.8024 30.7327 12.3989 30.7106 11.9979 30.667C14.3045 32.0309 16.9986 32.7543 19.7505 32.7487C21.6488 32.7608 23.5308 32.4299 25.2871 31.7752C27.0434 31.1205 28.639 30.1551 29.9811 28.9351C31.3232 27.7151 32.385 26.2648 33.1049 24.6686C33.8248 23.0724 34.1883 21.3621 34.1743 19.6371C34.1743 19.4375 34.1743 19.2378 34.1583 19.0427C35.1498 18.3897 36.0053 17.5815 36.6849 16.6559V16.6559Z" fill="#898989"/>
</g>
<defs>
<clipPath id="clip0_61385:205">
<rect width="24.6857" height="18.2542" fill="white" transform="translate(12 14.4938)"/>
</clipPath>
</defs>
</svg>
