<svg width="48" height="47" viewBox="0 0 48 47" fill="none" xmlns="http://www.w3.org/2000/svg">
<rect y="0.640381" width="48" height="45.6355" fill="#060606"/>
<g clip-path="url(#clip0_61385:212)">
<path d="M36.5252 18.5246C36.5698 17.5468 36.219 16.5917 35.5499 15.8686C34.8809 15.1455 33.9481 14.7136 32.9564 14.6676C30.2851 14.5442 27.5608 14.4938 24.7784 14.4938H23.9108C21.1337 14.4938 18.4042 14.5416 15.7328 14.6676C14.7408 14.7167 13.809 15.151 13.141 15.8756C12.473 16.6002 12.1233 17.5561 12.1684 18.5341C12.0485 20.2297 11.9947 21.9183 12 23.6113C12.0053 25.3043 12.0485 26.9955 12.164 28.6928C12.117 29.6723 12.4655 30.6303 13.1334 31.3571C13.8013 32.0839 14.734 32.5202 15.7275 32.5706C18.5338 32.6993 21.4132 32.7557 24.3402 32.7514C27.2719 32.7607 30.1428 32.7004 32.9529 32.5706C33.9464 32.5211 34.8796 32.0857 35.5483 31.3596C36.2169 30.6335 36.5666 29.6759 36.5208 28.6963C36.6363 26.999 36.6892 25.3069 36.6848 23.6104C36.6942 21.9151 36.641 20.2199 36.5252 18.5246ZM21.9783 28.2739V18.9339L28.9705 23.6017L21.9783 28.2739Z" fill="#898989"/>
</g>
<defs>
<clipPath id="clip0_61385:212">
<rect width="24.6857" height="18.2542" fill="white" transform="translate(12 14.4938)"/>
</clipPath>
</defs>
</svg>
